<?xml version="1.0" standalone="no"?>
<!DOCTYPE svg PUBLIC "-//W3C//DTD SVG 20010904//EN"
 "http://www.w3.org/TR/2001/REC-SVG-20010904/DTD/svg10.dtd">
<svg version="1.0" xmlns="http://www.w3.org/2000/svg"
 width="64.000000pt" height="64.000000pt" viewBox="0 0 64.000000 64.000000"
 preserveAspectRatio="xMidYMid meet">

<g transform="translate(0.000000,64.000000) scale(0.100000,-0.100000)"
fill="#f86250" stroke="none">
<path d="M214 590 c-31 -12 -54 -55 -54 -99 0 -92 98 -137 154 -70 69 81 -6
207 -100 169z"/>
<path d="M414 540 c-33 -13 -54 -50 -54 -95 0 -94 112 -119 155 -35 27 52 13
109 -32 129 -28 13 -40 13 -69 1z"/>
<path d="M53 470 c-84 -34 -53 -170 38 -170 57 0 89 73 59 131 -9 15 -61 51
-72 48 -2 0 -13 -4 -25 -9z"/>
<path d="M503 356 c-37 -32 -39 -99 -4 -127 79 -64 188 63 115 135 -23 24 -78
20 -111 -8z"/>
<path d="M219 347 c-47 -31 -139 -170 -139 -209 0 -21 10 -40 34 -64 36 -36
52 -40 106 -24 47 15 109 14 158 -1 72 -21 132 20 132 91 0 49 -95 190 -143
213 -50 24 -107 22 -148 -6z"/>
</g>
</svg>
